<svg xmlns="http://www.w3.org/2000/svg" width="32" height="32" id="business"><path fill="#ffed85" d="M29.5 29h-27c-.827 0-1.5-.673-1.5-1.5v-6a.5.5 0 0 1 1 0v6c0 .275.225.5.5.5h27c.275 0 .5-.225.5-.5v-6a.5.5 0 0 1 1 0v6c0 .827-.673 1.5-1.5 1.5zm-8-23a.5.5 0 0 1-.5-.5v-2c0-.275-.225-.5-.5-.5h-9c-.275 0-.5.225-.5.5v2a.5.5 0 0 1-1 0v-2c0-.827.673-1.5 1.5-1.5h9c.827 0 1.5.673 1.5 1.5v2a.5.5 0 0 1-.5.5zm6 15h-2a.5.5 0 0 1 0-1h2c1.379 0 2.5-1.121 2.5-2.5V8H3.5a.5.5 0 0 1 0-1h27a.5.5 0 0 1 .5.5v10c0 1.93-1.57 3.5-3.5 3.5z"></path><path fill="#ffed85" d="M6.5 21h-2C2.57 21 1 19.43 1 17.5v-10a.5.5 0 0 1 1 0v10C2 18.879 3.121 20 4.5 20h2a.5.5 0 0 1 0 1zm13 0h-7a.5.5 0 0 1 0-1h7a.5.5 0 0 1 0 1zm-10 2c-.827 0-1.5-.673-1.5-1.5v-3a.5.5 0 0 1 .5-.5h2a.5.5 0 0 1 .5.5v3c0 .827-.673 1.5-1.5 1.5zM9 19v2.5c0 .275.225.5.5.5s.5-.225.5-.5V19H9zm13.5 4c-.827 0-1.5-.673-1.5-1.5v-3a.5.5 0 0 1 .5-.5h2a.5.5 0 0 1 .5.5v3c0 .827-.673 1.5-1.5 1.5zm-.5-4v2.5c0 .275.225.5.5.5s.5-.225.5-.5V19h-1z"></path></svg>