<svg xmlns="http://www.w3.org/2000/svg" viewBox="0 0 64 64" id="logout"><path d="M53.22 43.92c-1.73 0-3.13 1.41-3.13 3.13l-.07 10.68-36.79-.07.07-51.39 36.79.07v10.6c0 1.73 1.4 3.14 3.13 3.14s3.14-1.41 3.14-3.14V5.85c0-3.23-2.63-5.85-5.85-5.85h-37.7C9.57 0 6.95 2.62 6.95 5.85v52.3c0 3.23 2.62 5.85 5.85 5.85h37.7c3.22 0 5.85-2.62 5.85-5.85V47.06c0-1.73-1.41-3.14-3.13-3.14z"></path><path d="M56.49 30.98 40.44 20.36c-.38-.25-.86-.27-1.26-.05-.4.21-.64.62-.64 1.08v4.24H16.4a.49.49 0 0 0-.49.49v11.76c0 .27.22.49.49.49h22.14v4.25c0 .45.24.86.64 1.08.19.1.39.14.59.14.23 0 .47-.06.67-.2L56.5 33.02c.34-.22.55-.61.55-1.02s-.22-.8-.56-1.02z"></path></svg>