<svg xmlns="http://www.w3.org/2000/svg" enable-background="new 0 0 231.414 237.183" viewBox="0 0 231.414 237.183" id="course-certificate"><path fill="#ffd2f5" d="M107.752 67.182V47.391h100.927v36.365l10-10.001V47.392 21.297h-10.001H107.751h-10v26.095 5.13C101.205 55.747 104.774 60.413 107.752 67.182zM158.215 29.797c2.762 0 5 2.239 5 5 0 2.761-2.238 5-5 5-2.762 0-5-2.239-5-5C153.215 32.036 155.453 29.797 158.215 29.797zM208.679 187.296H107.752V150.91c-1.901.968-4.047 1.517-6.313 1.518-.257 0-.515-.012-.777-.023-.999-.059-1.972-.223-2.91-.477v35.367 10h10 100.927 10.001v-10V96.377l-10 10V187.296z"></path><path fill="#ffd2f5" d="M184.979,167.296c-3.352,0-6.431-1.186-8.844-3.158l-5.656,10.439l6.617-1.869l1.932,6.5l5.949-10.981l5.951,10.981
		l1.932-6.5l6.617,1.869l-5.656-10.439C191.407,166.109,188.329,167.296,184.979,167.296z"></path><circle fill="#ffd2f5" cx="184.978" cy="153.296" r="12"></circle><rect fill="#ffd2f5" width="66.5" height="5.149" x="125.846" y="68.297"></rect><rect fill="#ffd2f5" width="66.5" height="5.148" x="125.846" y="80.972"></rect><rect fill="#ffd2f5" width="66.5" height="5.148" x="125.846" y="93.647"></rect><rect fill="#ffd2f5" width="27.5" height="5.148" x="125.846" y="151.647"></rect><rect fill="#ffd2f5" width="27.5" height="5.148" x="125.846" y="161.647"></rect><polygon fill="#ffd2f5" points="160.35 143.394 170.604 140.212 231.414 79.401 224.343 72.33 163.532 133.142"></polygon><path fill="#ffd2f5" d="M57.683,134.548h4.636v90.27c0,6.832,5.537,12.365,12.365,12.365c6.826,0,12.363-5.533,12.363-12.365v-98V107.88V74.815
		c3.468,7.1,6.998,20.703,6.965,44.92c0,5.516-0.178,11.572-0.568,18.222c-0.26,4.411,3.105,8.198,7.518,8.456
		c0.16,0.008,0.318,0.014,0.476,0.014c4.204-0.002,7.729-3.281,7.979-7.533c0.406-6.934,0.594-13.301,0.594-19.158
		c-0.012-22.658-2.77-37.664-6.877-48.045c-4.057-10.339-9.855-16.174-15.234-18.842c-3.416-1.721-6.414-2.11-8.221-2.133
		c-0.119-0.005-0.238-0.017-0.359-0.017H52.76c0.004,0.219,0.008,0.476,0.009,0.807c-0.016,3.917-0.447,15.504-5.408,28.774
		l-5.538-2.332c4.512-12.226,4.959-22.99,4.946-26.442c0-0.36-0.004-0.621-0.009-0.807h-6.077c-0.479,0-0.944,0.05-1.399,0.133
		l0.001,0.009c-3.087,0.348-5.766,1.558-8.109,3.105c-2.766,1.849-5.152,4.261-7.215,7.11c-4.088,5.686-6.924,13.246-6.939,21.842
		c-0.01,6.435,1.672,13.41,5.572,20.1c3.891,6.699,9.926,13.072,18.375,18.721c1.365,0.914,2.912,1.354,4.441,1.354
		c2.58,0,5.113-1.248,6.656-3.553c2.457-3.672,1.473-8.641-2.201-11.098c-6.777-4.541-10.939-9.168-13.439-13.465
		c-2.49-4.309-3.395-8.326-3.404-12.059c-0.004-3.486,0.836-6.736,2.12-9.43c1.263-2.686,3.017-4.777,4.392-5.836
		c0.426-0.342,0.79-0.558,1.067-0.699l0.184,2.258c-1.045,0.806-2.648,2.608-3.834,5.128c-1.268,2.66-1.933,5.621-1.93,8.576
		c0.006,1.967,0.288,3.881,0.842,5.773l3.568-8.473l30.99,13.049L53.77,132.778l-30.987-13.047l3.461-8.219
		c-2.065-2.406-3.869-4.91-5.382-7.512c-3.832-6.578-5.852-13.877-5.839-21.107c0.012-8.289,2.611-16.461,7.313-23.006
		c2.271-3.139,4.871-5.694,7.728-7.605c2.847-1.881,6.135-3.07,9.056-3.463l0.001,0.017c0.511-0.083,1.029-0.137,1.563-0.137h14.631
		c-5.286-1.128-14.396-2.855-20.277-2.773c-1.518,0.021-2.825,0.161-3.789,0.465c-6.332,2-24,14-30.5,49.5
		c-4.888,26.692,15.242,47.588,30.207,51.213v-20.678l2,0.842v28.708v68.841c0,6.832,5.538,12.365,12.365,12.365
		c5.281,0,9.778-3.318,11.549-7.981c0.519-1.364,0.814-2.838,0.814-4.384V134.548z"></path><circle fill="#ffd2f5" cx="60.001" cy="22.5" r="22.5"></circle><rect fill="#ffd2f5"  width="2.325" height="22.742" x="50.687" y="82.661" transform="rotate(-67.164 51.848 94.033)"></rect><rect fill="#ffd2f5" width="2.326" height="22.744" x="48.881" y="86.947" transform="rotate(-67.225 50.045 98.322)"></rect></svg>